<svg width="831" height="395" viewBox="0 0 831 395" fill="none" xmlns="http://www.w3.org/2000/svg">
<g filter="url(#filter0_d)">
<path d="M801.5 108.867C695.1 97.6667 648.5 104.2 638.5 108.867L558 288.867V354.367C656 331.567 761.167 344.867 801.5 354.367L752.5 241.867L801.5 108.867Z" fill="white"/>
<path d="M801.5 108.867C695.1 97.6667 648.5 104.2 638.5 108.867L558 288.867V354.367C656 331.567 761.167 344.867 801.5 354.367L752.5 241.867L801.5 108.867Z" stroke="#E4002B"/>
</g>
<g filter="url(#filter1_d)">
<path d="M558 354.367C555.6 326.767 557 298.2 558 287.367C598.8 290.567 630.333 296.367 641 298.867C614.6 337.267 574.667 351.867 558 354.367Z" fill="white"/>
<path d="M558 354.367C555.6 326.767 557 298.2 558 287.367C598.8 290.567 630.333 296.367 641 298.867C614.6 337.267 574.667 351.867 558 354.367Z" stroke="#E4002B"/>
</g>
<g filter="url(#filter2_d)">
<path fill-rule="evenodd" clip-rule="evenodd" d="M24 68.8667C24 68.8667 451.5 19.6667 631.5 68.8667C634.445 83.9119 636.937 98.2458 639.03 111.867C639.212 113.048 639.39 114.224 639.566 115.394C654.967 218.068 647.562 279.471 641 298.867C617.417 293.311 564.171 286.931 501.5 282.93C394.977 276.13 233.78 276.201 24 298.867V68.8667Z" fill="#FEFEFE"/>
<path d="M631.5 68.8667C451.5 19.6667 24 68.8667 24 68.8667V298.867C233.78 276.201 394.977 276.13 501.5 282.93C564.171 286.931 617.417 293.311 641 298.867C647.562 279.471 654.967 218.068 639.566 115.394M631.5 68.8667L639.03 111.867M631.5 68.8667C634.445 83.9119 636.937 98.2458 639.03 111.867M631.5 68.8667C634.7 85.2167 637.366 100.727 639.566 115.394M639.03 111.867C639.212 113.048 639.39 114.224 639.566 115.394" stroke="#E4002B"/>
</g>
<path d="M265.13 114.59C265.13 115.837 264.45 120.653 263.09 129.04C261.73 137.427 260.823 143.207 260.37 146.38C257.423 164.287 255.043 179.02 253.23 190.58C251.53 202.14 250.68 210.017 250.68 214.21C250.68 220.557 252.04 225.543 254.76 229.17C250.113 232.117 245.75 233.59 241.67 233.59H241.16C233.34 233.477 227.107 231.04 222.46 226.28C217.813 221.52 212.827 212.057 207.5 197.89C202.287 183.723 194.637 159.64 184.55 125.64H183.36L179.45 149.44C173.443 186.273 170.44 207.807 170.44 214.04C170.44 220.613 171.8 225.6 174.52 229C170.1 231.947 165.737 233.42 161.43 233.42C157.237 233.42 154.177 232.343 152.25 230.19C150.323 228.037 149.36 224.523 149.36 219.65C149.36 213.077 150.267 203.103 152.08 189.73C153.893 176.357 157.35 154.143 162.45 123.09L157.18 112.72C164.773 107.96 171.46 105.58 177.24 105.58H177.41H177.58C183.813 105.693 188.97 108.13 193.05 112.89C197.243 117.537 201.89 126.83 206.99 140.77C212.09 154.597 219.4 177.433 228.92 209.28H230.11C230.677 202.253 231.923 192.337 233.85 179.53C235.777 166.61 238.78 147.797 242.86 123.09L237.08 112.72C244.787 107.96 251.643 105.58 257.65 105.58C262.637 105.58 265.13 108.583 265.13 114.59ZM355.528 130.06C344.874 130.06 335.241 128.983 326.628 126.83C326.174 129.323 325.664 132.497 325.098 136.35C324.531 140.203 323.794 144.737 322.888 149.95L320.168 166.78C324.814 167.347 330.708 167.63 337.848 167.63L350.428 164.57L350.598 168.65C350.598 172.73 349.238 175.903 346.518 178.17C343.911 180.323 340.114 181.4 335.128 181.4C330.028 181.4 324.361 180.607 318.127 179.02C315.294 197.607 313.878 209.28 313.878 214.04C313.878 215.06 313.934 215.797 314.048 216.25H348.048C354.848 215.457 361.024 213.983 366.578 211.83C367.598 215.23 368.107 217.723 368.107 219.31C368.107 224.07 366.011 227.583 361.817 229.85C357.738 232.117 351.221 233.25 342.268 233.25C333.881 233.25 325.778 232.003 317.958 229.51C313.764 232.117 309.401 233.42 304.868 233.42C300.674 233.42 297.614 232.343 295.688 230.19C293.761 228.037 292.798 224.523 292.798 219.65C292.798 213.19 293.704 203.33 295.518 190.07C297.331 176.81 300.788 154.483 305.888 123.09L300.618 112.72C308.211 107.96 314.954 105.58 320.848 105.58C325.494 105.58 327.988 108.187 328.328 113.4C335.808 113.173 342.438 112.607 348.218 111.7C353.998 110.793 361.818 109.377 371.678 107.45L375.758 106.6C376.324 108.527 376.608 110.907 376.608 113.74C376.608 119.293 374.568 123.43 370.487 126.15C366.521 128.757 361.534 130.06 355.528 130.06ZM539.481 120.54C539.481 137.54 524.237 171.087 493.751 221.18L496.811 226.96C494.884 229 491.937 230.7 487.971 232.06C484.117 233.42 480.264 234.1 476.411 234.1C469.611 234.1 464.964 231.89 462.471 227.47C459.977 222.937 458.504 216.25 458.051 207.41L455.841 177.49L452.611 183.1C444.677 197.04 437.934 207.693 432.381 215.06C426.827 222.427 421.784 227.413 417.251 230.02C412.831 232.74 408.127 234.1 403.141 234.1C398.381 234.1 395.037 232.117 393.111 228.15C391.297 224.183 390.391 218.347 390.391 210.64L390.561 178C390.561 161.453 389.597 147.683 387.671 136.69C385.857 125.697 382.117 116.857 376.451 110.17C380.644 107.11 385.234 105.58 390.221 105.58C396.001 105.58 400.364 107.62 403.311 111.7C406.371 115.78 408.467 122.41 409.601 131.59C410.734 140.77 411.301 153.86 411.301 170.86C411.301 199.193 411.244 214.72 411.131 217.44H413.341C431.247 195.34 444.734 173.07 453.801 150.63L451.421 116.97C452.667 115.383 454.481 114.137 456.861 113.23C459.354 112.21 462.131 111.7 465.191 111.7C468.931 111.7 471.934 113.003 474.201 115.61C476.467 118.103 477.601 121.56 477.601 125.98C477.601 132.553 475.447 140.317 471.141 149.27L473.521 217.44H475.561C490.521 193.867 501.344 174.883 508.031 160.49C514.831 145.983 518.231 134.99 518.231 127.51C518.231 120.71 516.757 114.93 513.811 110.17C517.211 108.357 519.931 107.167 521.971 106.6C524.124 105.92 526.447 105.58 528.941 105.58C532.227 105.58 534.777 106.94 536.591 109.66C538.517 112.38 539.481 116.007 539.481 120.54Z" fill="#E4002B"/>
<defs>
<filter id="filter0_d" x="535.5" y="87.1826" width="294.857" height="302.9" filterUnits="userSpaceOnUse" color-interpolation-filters="sRGB">
<feFlood flood-opacity="0" result="BackgroundImageFix"/>
<feColorMatrix in="SourceAlpha" type="matrix" values="0 0 0 0 0 0 0 0 0 0 0 0 0 0 0 0 0 0 127 0"/>
<feOffset dx="3" dy="10"/>
<feGaussianBlur stdDeviation="12.5"/>
<feColorMatrix type="matrix" values="0 0 0 0 0.894118 0 0 0 0 0 0 0 0 0 0.168627 0 0 0 1 0"/>
<feBlend mode="normal" in2="BackgroundImageFix" result="effect1_dropShadow"/>
<feBlend mode="normal" in="SourceGraphic" in2="effect1_dropShadow" result="shape"/>
</filter>
<filter id="filter1_d" x="533.175" y="270.83" width="141.652" height="124.11" filterUnits="userSpaceOnUse" color-interpolation-filters="sRGB">
<feFlood flood-opacity="0" result="BackgroundImageFix"/>
<feColorMatrix in="SourceAlpha" type="matrix" values="0 0 0 0 0 0 0 0 0 0 0 0 0 0 0 0 0 0 127 0"/>
<feOffset dx="5" dy="12"/>
<feGaussianBlur stdDeviation="14"/>
<feColorMatrix type="matrix" values="0 0 0 0 0.894118 0 0 0 0 0 0 0 0 0 0.168627 0 0 0 1 0"/>
<feBlend mode="normal" in2="BackgroundImageFix" result="effect1_dropShadow"/>
<feBlend mode="normal" in="SourceGraphic" in2="effect1_dropShadow" result="shape"/>
</filter>
<filter id="filter2_d" x="0.5" y="30.4999" width="681.665" height="308.958" filterUnits="userSpaceOnUse" color-interpolation-filters="sRGB">
<feFlood flood-opacity="0" result="BackgroundImageFix"/>
<feColorMatrix in="SourceAlpha" type="matrix" values="0 0 0 0 0 0 0 0 0 0 0 0 0 0 0 0 0 0 127 0"/>
<feOffset dx="5" dy="12"/>
<feGaussianBlur stdDeviation="14"/>
<feColorMatrix type="matrix" values="0 0 0 0 0.894118 0 0 0 0 0 0 0 0 0 0.168627 0 0 0 1 0"/>
<feBlend mode="normal" in2="BackgroundImageFix" result="effect1_dropShadow"/>
<feBlend mode="normal" in="SourceGraphic" in2="effect1_dropShadow" result="shape"/>
</filter>
</defs>
</svg>
